<svg width="1024" height="1024" viewBox="0 0 1024 1024" fill="none" xmlns="http://www.w3.org/2000/svg">
  <rect width="1024" height="1024" fill="#FFFFFF"/>
  <rect x="128" y="128" width="768" height="768" fill="#000000"/>
  <rect x="256" y="256" width="512" height="512" fill="#FFFFFF"/>
  <rect x="256" y="256" width="32" height="32" fill="#000000"/>
  <rect x="288" y="256" width="32" height="32" fill="#000000"/>
  <rect x="320" y="256" width="32" height="32" fill="#000000"/>
  <rect x="352" y="256" width="32" height="32" fill="#000000"/>
  <rect x="384" y="256" width="32" height="32" fill="#000000"/>
  <rect x="480" y="256" width="32" height="32" fill="#000000"/>
  <rect x="544" y="256" width="32" height="32" fill="#000000"/>
  <rect x="608" y="256" width="32" height="32" fill="#000000"/>
  <rect x="640" y="256" width="32" height="32" fill="#000000"/>
  <rect x="672" y="256" width="32" height="32" fill="#000000"/>
  <rect x="704" y="256" width="32" height="32" fill="#000000"/>
  <rect x="736" y="256" width="32" height="32" fill="#000000"/>
  <rect x="256" y="288" width="32" height="32" fill="#000000"/>
  <rect x="384" y="288" width="32" height="32" fill="#000000"/>
  <rect x="448" y="288" width="32" height="32" fill="#000000"/>
  <rect x="512" y="288" width="32" height="32" fill="#000000"/>
  <rect x="608" y="288" width="32" height="32" fill="#000000"/>
  <rect x="736" y="288" width="32" height="32" fill="#000000"/>
  <rect x="256" y="320" width="32" height="32" fill="#000000"/>
  <rect x="320" y="320" width="32" height="32" fill="#000000"/>
  <rect x="384" y="320" width="32" height="32" fill="#000000"/>
  <rect x="480" y="320" width="32" height="32" fill="#000000"/>
  <rect x="544" y="320" width="32" height="32" fill="#000000"/>
  <rect x="608" y="320" width="32" height="32" fill="#000000"/>
  <rect x="672" y="320" width="32" height="32" fill="#000000"/>
  <rect x="736" y="320" width="32" height="32" fill="#000000"/>
  <rect x="256" y="352" width="32" height="32" fill="#000000"/>
  <rect x="384" y="352" width="32" height="32" fill="#000000"/>
  <rect x="448" y="352" width="32" height="32" fill="#000000"/>
  <rect x="480" y="352" width="32" height="32" fill="#000000"/>
  <rect x="512" y="352" width="32" height="32" fill="#000000"/>
  <rect x="608" y="352" width="32" height="32" fill="#000000"/>
  <rect x="736" y="352" width="32" height="32" fill="#000000"/>
  <rect x="256" y="384" width="32" height="32" fill="#000000"/>
  <rect x="288" y="384" width="32" height="32" fill="#000000"/>
  <rect x="320" y="384" width="32" height="32" fill="#000000"/>
  <rect x="352" y="384" width="32" height="32" fill="#000000"/>
  <rect x="384" y="384" width="32" height="32" fill="#000000"/>
  <rect x="448" y="384" width="32" height="32" fill="#000000"/>
  <rect x="544" y="384" width="32" height="32" fill="#000000"/>
  <rect x="608" y="384" width="32" height="32" fill="#000000"/>
  <rect x="640" y="384" width="32" height="32" fill="#000000"/>
  <rect x="672" y="384" width="32" height="32" fill="#000000"/>
  <rect x="704" y="384" width="32" height="32" fill="#000000"/>
  <rect x="736" y="384" width="32" height="32" fill="#000000"/>
  <rect x="480" y="416" width="32" height="32" fill="#000000"/>
  <rect x="512" y="416" width="32" height="32" fill="#000000"/>
  <rect x="544" y="416" width="32" height="32" fill="#000000"/>
  <rect x="288" y="448" width="32" height="32" fill="#000000"/>
  <rect x="320" y="448" width="32" height="32" fill="#000000"/>
  <rect x="384" y="448" width="32" height="32" fill="#000000"/>
  <rect x="448" y="448" width="32" height="32" fill="#000000"/>
  <rect x="576" y="448" width="32" height="32" fill="#000000"/>
  <rect x="608" y="448" width="32" height="32" fill="#000000"/>
  <rect x="672" y="448" width="32" height="32" fill="#000000"/>
  <rect x="704" y="448" width="32" height="32" fill="#000000"/>
  <rect x="352" y="480" width="32" height="32" fill="#000000"/>
  <rect x="416" y="480" width="32" height="32" fill="#000000"/>
  <rect x="448" y="480" width="32" height="32" fill="#000000"/>
  <rect x="480" y="480" width="32" height="32" fill="#000000"/>
  <rect x="512" y="480" width="32" height="32" fill="#000000"/>
  <rect x="544" y="480" width="32" height="32" fill="#000000"/>
  <rect x="640" y="480" width="32" height="32" fill="#000000"/>
  <rect x="256" y="512" width="32" height="32" fill="#000000"/>
  <rect x="288" y="512" width="32" height="32" fill="#000000"/>
  <rect x="416" y="512" width="32" height="32" fill="#000000"/>
  <rect x="480" y="512" width="32" height="32" fill="#000000"/>
  <rect x="512" y="512" width="32" height="32" fill="#000000"/>
  <rect x="576" y="512" width="32" height="32" fill="#000000"/>
  <rect x="672" y="512" width="32" height="32" fill="#000000"/>
  <rect x="704" y="512" width="32" height="32" fill="#000000"/>
  <rect x="736" y="512" width="32" height="32" fill="#000000"/>
  <rect x="320" y="544" width="32" height="32" fill="#000000"/>
  <rect x="352" y="544" width="32" height="32" fill="#000000"/>
  <rect x="384" y="544" width="32" height="32" fill="#000000"/>
  <rect x="448" y="544" width="32" height="32" fill="#000000"/>
  <rect x="544" y="544" width="32" height="32" fill="#000000"/>
  <rect x="608" y="544" width="32" height="32" fill="#000000"/>
  <rect x="640" y="544" width="32" height="32" fill="#000000"/>
  <rect x="288" y="576" width="32" height="32" fill="#000000"/>
  <rect x="416" y="576" width="32" height="32" fill="#000000"/>
  <rect x="448" y="576" width="32" height="32" fill="#000000"/>
  <rect x="480" y="576" width="32" height="32" fill="#000000"/>
  <rect x="512" y="576" width="32" height="32" fill="#000000"/>
  <rect x="672" y="576" width="32" height="32" fill="#000000"/>
  <rect x="704" y="576" width="32" height="32" fill="#000000"/>
  <rect x="256" y="608" width="32" height="32" fill="#000000"/>
  <rect x="288" y="608" width="32" height="32" fill="#000000"/>
  <rect x="320" y="608" width="32" height="32" fill="#000000"/>
  <rect x="352" y="608" width="32" height="32" fill="#000000"/>
  <rect x="384" y="608" width="32" height="32" fill="#000000"/>
  <rect x="480" y="608" width="32" height="32" fill="#000000"/>
  <rect x="544" y="608" width="32" height="32" fill="#000000"/>
  <rect x="576" y="608" width="32" height="32" fill="#000000"/>
  <rect x="640" y="608" width="32" height="32" fill="#000000"/>
  <rect x="704" y="608" width="32" height="32" fill="#000000"/>
  <rect x="256" y="640" width="32" height="32" fill="#000000"/>
  <rect x="384" y="640" width="32" height="32" fill="#000000"/>
  <rect x="448" y="640" width="32" height="32" fill="#000000"/>
  <rect x="512" y="640" width="32" height="32" fill="#000000"/>
  <rect x="608" y="640" width="32" height="32" fill="#000000"/>
  <rect x="672" y="640" width="32" height="32" fill="#000000"/>
  <rect x="704" y="640" width="32" height="32" fill="#000000"/>
  <rect x="256" y="672" width="32" height="32" fill="#000000"/>
  <rect x="320" y="672" width="32" height="32" fill="#000000"/>
  <rect x="384" y="672" width="32" height="32" fill="#000000"/>
  <rect x="480" y="672" width="32" height="32" fill="#000000"/>
  <rect x="544" y="672" width="32" height="32" fill="#000000"/>
  <rect x="576" y="672" width="32" height="32" fill="#000000"/>
  <rect x="608" y="672" width="32" height="32" fill="#000000"/>
  <rect x="736" y="672" width="32" height="32" fill="#000000"/>
  <rect x="256" y="704" width="32" height="32" fill="#000000"/>
  <rect x="384" y="704" width="32" height="32" fill="#000000"/>
  <rect x="448" y="704" width="32" height="32" fill="#000000"/>
  <rect x="480" y="704" width="32" height="32" fill="#000000"/>
  <rect x="512" y="704" width="32" height="32" fill="#000000"/>
  <rect x="640" y="704" width="32" height="32" fill="#000000"/>
  <rect x="704" y="704" width="32" height="32" fill="#000000"/>
  <rect x="256" y="736" width="32" height="32" fill="#000000"/>
  <rect x="288" y="736" width="32" height="32" fill="#000000"/>
  <rect x="320" y="736" width="32" height="32" fill="#000000"/>
  <rect x="352" y="736" width="32" height="32" fill="#000000"/>
  <rect x="384" y="736" width="32" height="32" fill="#000000"/>
  <rect x="512" y="736" width="32" height="32" fill="#000000"/>
  <rect x="544" y="736" width="32" height="32" fill="#000000"/>
  <rect x="608" y="736" width="32" height="32" fill="#000000"/>
  <rect x="672" y="736" width="32" height="32" fill="#000000"/>
</svg>